<svg xmlns="http://www.w3.org/2000/svg" xmlns:xlink="http://www.w3.org/1999/xlink" width="22" height="18" viewBox="0 0 22 18"><defs><path id="oxvra" d="M1110.65 10127.724h-17.85a1.7 1.7 0 0 1-1.7-1.7v-13.6a1.7 1.7 0 0 1 1.7-1.7h17.85a1.7 1.7 0 0 1 1.7 1.7v13.6a1.7 1.7 0 0 1-1.7 1.7zm0-15.3h-17.85v13.6h17.85zm-13.048 10.398l2.54-4.338 2.541 2.704 3.494-5.555 3.652 9.557h-16.197l2.064-4.358zm-1.402-7.848a1.7 1.7 0 1 1 0 3.4 1.7 1.7 0 0 1 0-3.4z"/></defs><g><g clip-path="url(#clip-1218)" transform="translate(-1091 -10110)"><use fill="#fff" xlink:href="#oxvra"/></g></g></svg>